<svg width="20" height="15" viewBox="0 0 20 15" fill="none" xmlns="http://www.w3.org/2000/svg">
<path d="M13.3333 7.58333C13.3333 7.0308 13.5528 6.5009 13.9435 6.11019C14.3342 5.71949 14.8641 5.5 15.4167 5.5C15.9692 5.5 16.4991 5.71949 16.8898 6.11019C17.2805 6.5009 17.5 7.0308 17.5 7.58333C17.5 8.13587 17.2805 8.66577 16.8898 9.05647C16.4991 9.44717 15.9692 9.66667 15.4167 9.66667C14.8641 9.66667 14.3342 9.44717 13.9435 9.05647C13.5528 8.66577 13.3333 8.13587 13.3333 7.58333ZM10.8333 0.5V14.6667H20V0.5H10.8333ZM18.3333 11.3333C17.4167 11.3333 16.6667 12.0833 16.6667 13H14.1667C14.1667 12.558 13.9911 12.1341 13.6785 11.8215C13.3659 11.5089 12.942 11.3333 12.5 11.3333V3.83333C13.425 3.83333 14.1667 3.09167 14.1667 2.16667H16.6667C16.6667 2.60869 16.8423 3.03262 17.1548 3.34518C17.4674 3.65774 17.8913 3.83333 18.3333 3.83333V11.3333ZM5.83333 3C6.75 3 7.5 3.75 7.5 4.66667C7.5 5.58333 6.75 6.33333 5.83333 6.33333C4.91667 6.33333 4.16667 5.58333 4.16667 4.66667C4.16667 3.75 4.91667 3 5.83333 3ZM5.83333 1.33333C3.99167 1.33333 2.5 2.825 2.5 4.66667C2.5 6.50833 3.99167 8 5.83333 8C7.675 8 9.16667 6.50833 9.16667 4.66667C9.16667 2.825 7.675 1.33333 5.83333 1.33333ZM5.83333 9.66667C2.60833 9.66667 0 11.1583 0 13V14.6667H9.16667V13H1.66667C1.66667 12.5167 3.125 11.3333 5.83333 11.3333C7.35833 11.3333 8.475 11.7083 9.16667 12.125V10.2667C8.225 9.89167 7.08333 9.66667 5.83333 9.66667Z" fill="#282828"/>
</svg>
