<svg width="19" height="16" viewBox="0 0 19 16" fill="none" xmlns="http://www.w3.org/2000/svg">
<path d="M17.9102 8.03961C17.9102 7.66961 17.7902 7.35961 17.5402 7.11961L13.7002 3.36961C13.4802 3.11961 13.1902 2.98961 12.8502 2.98961C12.5002 2.98961 12.2002 3.10961 11.9602 3.33961C11.7202 3.56961 11.5902 3.86961 11.5902 4.21961C11.5902 4.56961 11.7102 4.86961 11.9602 5.10961L13.6002 6.74961L3.30016 6.74961C2.95016 6.74961 2.66016 6.86961 2.43016 7.11961C2.20016 7.36961 2.09016 7.66961 2.09016 8.01961C2.09016 8.36961 2.20016 8.66961 2.43016 8.91961C2.66016 9.16961 2.95016 9.29961 3.30016 9.30961L13.6002 9.30961L11.9602 10.9696C11.7202 11.2096 11.5902 11.4996 11.5902 11.8296C11.5902 12.1796 11.7102 12.4796 11.9602 12.7196C12.2102 12.9596 12.5002 13.0996 12.8602 13.0996C13.1802 13.0996 13.4702 12.9596 13.7102 12.6896L17.5502 8.93961C17.7902 8.68961 17.9102 8.39961 17.9102 8.03961Z" fill="black"/>
</svg>
