<svg width="20" height="20" viewBox="0 0 20 20" fill="none" xmlns="http://www.w3.org/2000/svg">
<path d="M5.8335 9.16602H7.50016V10.8327H5.8335V9.16602ZM5.8335 12.4993H7.50016V14.166H5.8335V12.4993ZM9.16683 9.16602H10.8335V10.8327H9.16683V9.16602ZM9.16683 12.4993H10.8335V14.166H9.16683V12.4993ZM12.5002 9.16602H14.1668V10.8327H12.5002V9.16602ZM12.5002 12.4993H14.1668V14.166H12.5002V12.4993Z" fill="#C7AE51"/>
<path d="M4.16667 18.3327H15.8333C16.7525 18.3327 17.5 17.5852 17.5 16.666V4.99935C17.5 4.08018 16.7525 3.33268 15.8333 3.33268H14.1667V1.66602H12.5V3.33268H7.5V1.66602H5.83333V3.33268H4.16667C3.2475 3.33268 2.5 4.08018 2.5 4.99935V16.666C2.5 17.5852 3.2475 18.3327 4.16667 18.3327ZM15.8333 6.66602L15.8342 16.666H4.16667V6.66602H15.8333Z" fill="#C7AE51"/>
</svg>
