<svg width="12" height="8" viewBox="0 0 12 8" fill="none" xmlns="http://www.w3.org/2000/svg">
<path fill-rule="evenodd" clip-rule="evenodd" d="M6.59222 7.08917C6.43595 7.24539 6.22402 7.33316 6.00305 7.33316C5.78208 7.33316 5.57016 7.24539 5.41389 7.08917L0.69972 2.375C0.620128 2.29813 0.556642 2.20617 0.512968 2.1045C0.469294 2.00283 0.446305 1.89348 0.445344 1.78284C0.444382 1.67219 0.465467 1.56245 0.507368 1.46004C0.549269 1.35763 0.611147 1.26458 0.68939 1.18634C0.767634 1.10809 0.860677 1.04622 0.963091 1.00432C1.0655 0.962415 1.17524 0.941331 1.28589 0.942292C1.39654 0.943254 1.50589 0.966242 1.60756 1.00992C1.70923 1.05359 1.80118 1.11708 1.87805 1.19667L6.00305 5.32167L10.1281 1.19667C10.2852 1.04487 10.4957 0.960874 10.7142 0.962772C10.9327 0.964671 11.1417 1.05231 11.2962 1.20682C11.4507 1.36133 11.5384 1.57034 11.5403 1.78883C11.5422 2.00733 11.4582 2.21783 11.3064 2.375L6.59222 7.08917Z" fill="black"/>
</svg>
