<svg width="19" height="19" viewBox="0 0 19 19" fill="none" xmlns="http://www.w3.org/2000/svg">
<path d="M8.82917 16.5003H3.16667C2.72464 16.5003 2.30072 16.3247 1.98816 16.0122C1.67559 15.6996 1.5 15.2757 1.5 14.8337V4.83366C1.5 4.39163 1.67559 3.96771 1.98816 3.65515C2.30072 3.34259 2.72464 3.16699 3.16667 3.16699H13.1667C13.6087 3.16699 14.0326 3.34259 14.3452 3.65515C14.6577 3.96771 14.8333 4.39163 14.8333 4.83366V8.16699" stroke="#C7AE51" stroke-width="2" stroke-linecap="round" stroke-linejoin="round"/>
<path d="M11.5 1.5V4.83333M4.83333 1.5V4.83333M1.5 8.16667H14.8333M10.6667 14C10.6667 14.8841 11.0179 15.7319 11.643 16.357C12.2681 16.9821 13.1159 17.3333 14 17.3333C14.8841 17.3333 15.7319 16.9821 16.357 16.357C16.9821 15.7319 17.3333 14.8841 17.3333 14C17.3333 13.1159 16.9821 12.2681 16.357 11.643C15.7319 11.0179 14.8841 10.6667 14 10.6667C13.1159 10.6667 12.2681 11.0179 11.643 11.643C11.0179 12.2681 10.6667 13.1159 10.6667 14Z" stroke="#C7AE51" stroke-width="2" stroke-linecap="round" stroke-linejoin="round"/>
<path d="M14 12.7471V14.0004L14.8333 14.8337" stroke="#C7AE51" stroke-width="2" stroke-linecap="round" stroke-linejoin="round"/>
</svg>
