<svg width="20" height="20" viewBox="0 0 20 20" fill="none" xmlns="http://www.w3.org/2000/svg">
<path d="M17.5 9.25703V4.16536C17.5 3.72334 17.3244 3.29941 17.0119 2.98685C16.6993 2.67429 16.2754 2.4987 15.8333 2.4987H12.35C12 1.53203 11.0833 0.832031 10 0.832031C8.91668 0.832031 8.00002 1.53203 7.65002 2.4987H4.16668C3.25002 2.4987 2.50002 3.2487 2.50002 4.16536V15.832C2.50002 16.2741 2.67561 16.698 2.98817 17.0105C3.30073 17.3231 3.72465 17.4987 4.16668 17.4987H9.25835C10.3083 18.532 11.7417 19.1654 13.3333 19.1654C16.5583 19.1654 19.1667 16.557 19.1667 13.332C19.1667 11.7404 18.5333 10.307 17.5 9.25703ZM10 2.4987C10.4583 2.4987 10.8333 2.8737 10.8333 3.33203C10.8333 3.79036 10.4583 4.16536 10 4.16536C9.54168 4.16536 9.16668 3.79036 9.16668 3.33203C9.16668 2.8737 9.54168 2.4987 10 2.4987ZM4.16668 15.832V4.16536H5.83335V5.83203H14.1667V4.16536H15.8333V8.06537C15.075 7.70703 14.2333 7.4987 13.3333 7.4987H5.83335V9.16537H9.25002C8.75002 9.64036 8.36668 10.207 8.06668 10.832H5.83335V12.4987H7.56668C7.52501 12.7737 7.50002 13.0487 7.50002 13.332C7.50002 14.232 7.70835 15.0737 8.06668 15.832H4.16668ZM13.3333 17.4987C11.0333 17.4987 9.16668 15.632 9.16668 13.332C9.16668 11.032 11.0333 9.16537 13.3333 9.16537C15.6333 9.16537 17.5 11.032 17.5 13.332C17.5 15.632 15.6333 17.4987 13.3333 17.4987ZM13.75 13.5404L16.1333 14.9487L15.5083 15.9654L12.5 14.1654V9.9987H13.75V13.5404Z" fill="#C5CED5"/>
</svg>
