<svg width="20" height="20" viewBox="0 0 20 20" fill="none" xmlns="http://www.w3.org/2000/svg">
<path d="M16.6665 4.25L11.8451 9.07143M16.6665 4.25H12.2022M16.6665 4.25V8.71429M4.1665 12.2857C4.1665 13.4697 4.63685 14.6052 5.47406 15.4424C6.31128 16.2797 7.44679 16.75 8.63079 16.75C9.81479 16.75 10.9503 16.2797 11.7875 15.4424C12.6247 14.6052 13.0951 13.4697 13.0951 12.2857C13.0951 11.1017 12.6247 9.9662 11.7875 9.12899C10.9503 8.29177 9.81479 7.82143 8.63079 7.82143C7.44679 7.82143 6.31128 8.29177 5.47406 9.12899C4.63685 9.9662 4.1665 11.1017 4.1665 12.2857Z" stroke="#C7AE51" stroke-width="2" stroke-linecap="round" stroke-linejoin="round"/>
</svg>
