<svg width="20" height="19" viewBox="0 0 20 19" fill="none" xmlns="http://www.w3.org/2000/svg">
<path d="M14.5117 7.67833C15 7.19 15 6.405 15 4.83333C15 3.26167 15 2.47667 14.5117 1.98833M14.5117 7.67833C14.0233 8.16667 13.2383 8.16667 11.6667 8.16667H8.33333C6.76167 8.16667 5.97667 8.16667 5.48833 7.67833M14.5117 1.98833C14.0233 1.5 13.2383 1.5 11.6667 1.5H8.33333C6.76167 1.5 5.97667 1.5 5.48833 1.98833M5.48833 1.98833C5 2.47667 5 3.26167 5 4.83333C5 6.405 5 7.19 5.48833 7.67833M10.8333 4.83333C10.8333 5.05435 10.7455 5.26631 10.5893 5.42259C10.433 5.57887 10.221 5.66667 10 5.66667C9.77899 5.66667 9.56702 5.57887 9.41074 5.42259C9.25446 5.26631 9.16667 5.05435 9.16667 4.83333C9.16667 4.61232 9.25446 4.40036 9.41074 4.24408C9.56702 4.0878 9.77899 4 10 4C10.221 4 10.433 4.0878 10.5893 4.24408C10.7455 4.40036 10.8333 4.61232 10.8333 4.83333Z" stroke="#C7AE51" stroke-width="1.5"/>
<path d="M14.9993 4C14.3363 4 13.7004 3.73661 13.2316 3.26777C12.7627 2.79893 12.4993 2.16304 12.4993 1.5M14.9993 5.66667C14.3363 5.66667 13.7004 5.93006 13.2316 6.3989C12.7627 6.86774 12.4993 7.50363 12.4993 8.16667M4.99935 4C5.66239 4 6.29828 3.73661 6.76712 3.26777C7.23596 2.79893 7.49935 2.16304 7.49935 1.5M4.99935 5.66667C5.66239 5.66667 6.29828 5.93006 6.76712 6.3989C7.23596 6.86774 7.49935 7.50363 7.49935 8.16667M4.16602 15.99H6.04935C6.89102 15.99 7.74352 16.0783 8.56268 16.2467C10.0252 16.5471 11.53 16.5804 13.0043 16.345C13.7277 16.2283 14.4377 16.0492 15.081 15.7392C15.661 15.4583 16.3718 15.0642 16.8493 14.6217C17.326 14.18 17.8227 13.4575 18.1743 12.8925C18.4777 12.4075 18.331 11.8133 17.8527 11.4525C17.5839 11.257 17.2601 11.1517 16.9277 11.1517C16.5953 11.1517 16.2715 11.257 16.0027 11.4525L14.4968 12.59C13.9135 13.0317 13.276 13.4375 12.5168 13.5583C12.4252 13.5725 12.3293 13.5858 12.2293 13.5975M12.2293 13.5975C12.1988 13.601 12.1683 13.6044 12.1377 13.6075M12.2293 13.5975C12.3627 13.5614 12.485 13.4927 12.5852 13.3975C12.7108 13.2889 12.8133 13.1562 12.8868 13.0073C12.9602 12.8584 13.0031 12.6962 13.0129 12.5305C13.0227 12.3647 12.9992 12.1987 12.9437 12.0422C12.8883 11.8857 12.8021 11.7418 12.6902 11.6192C12.5816 11.4986 12.4551 11.3955 12.3152 11.3133C9.98435 9.9225 6.35685 10.9817 4.16602 12.5358M12.2293 13.5975C12.1992 13.6041 12.1685 13.6074 12.1377 13.6075M12.1377 13.6075C11.6351 13.658 11.1288 13.6591 10.626 13.6108" stroke="#C7AE51" stroke-width="1.5" stroke-linecap="round"/>
<path d="M4.16602 11.917C4.16602 11.2266 3.60637 10.667 2.91602 10.667C2.22566 10.667 1.66602 11.2266 1.66602 11.917V16.0837C1.66602 16.774 2.22566 17.3337 2.91602 17.3337C3.60637 17.3337 4.16602 16.774 4.16602 16.0837V11.917Z" stroke="#C7AE51" stroke-width="1.5"/>
</svg>
