<svg width="20" height="20" viewBox="0 0 20 20" fill="none" xmlns="http://www.w3.org/2000/svg">
<path d="M11.786 9.57134C11.9037 9.39057 12.0869 9.26247 12.2971 9.21398C12.5073 9.16549 12.7281 9.20038 12.913 9.31133C13.098 9.42228 13.2328 9.60063 13.289 9.80888C13.3452 10.0171 13.3184 10.2391 13.2144 10.428C11.9627 12.5155 11.206 14.503 10.8227 16.803C10.6894 17.5997 9.61602 17.7613 9.25519 17.0388C7.53852 13.6055 6.04019 12.8922 3.59686 13.7072C3.493 13.7418 3.38336 13.7555 3.27417 13.7478C3.16499 13.74 3.05841 13.7107 2.96053 13.6617C2.76283 13.5628 2.61253 13.3894 2.54269 13.1797C2.47285 12.9699 2.48919 12.741 2.58812 12.5433C2.68704 12.3456 2.86045 12.1953 3.07019 12.1255C5.73686 11.2363 7.78352 11.8147 9.57269 14.3113L9.64852 14.4197L9.65769 14.3863C10.0927 12.863 10.7135 11.428 11.5519 9.96967L11.786 9.57134ZM15.0002 3.33301C14.6719 3.33301 14.3468 3.39767 14.0435 3.52331C13.7402 3.64895 13.4646 3.83309 13.2324 4.06524C13.0003 4.29739 12.8161 4.57299 12.6905 4.8763C12.5649 5.17961 12.5002 5.5047 12.5002 5.83301C12.5002 6.16131 12.5649 6.4864 12.6905 6.78972C12.8161 7.09303 13.0003 7.36863 13.2324 7.60078C13.4646 7.83292 13.7402 8.01707 14.0435 8.14271C14.3468 8.26834 14.6719 8.33301 15.0002 8.33301C15.6632 8.33301 16.2991 8.06962 16.768 7.60078C17.2368 7.13193 17.5002 6.49605 17.5002 5.83301C17.5002 5.16997 17.2368 4.53408 16.768 4.06524C16.2991 3.5964 15.6632 3.33301 15.0002 3.33301Z" fill="#C7AE51"/>
</svg>
