<svg width="22" height="22" viewBox="0 0 22 22" fill="none" xmlns="http://www.w3.org/2000/svg">
<path d="M11.7765 1.50342L14.2284 6.66525C14.2842 6.79628 14.3719 6.90976 14.4829 6.99441C14.5938 7.07904 14.7241 7.13189 14.8607 7.14767L20.2734 7.98385C20.4302 8.00486 20.578 8.07193 20.6995 8.17724C20.821 8.28253 20.9114 8.42173 20.9598 8.57853C21.0084 8.73534 21.013 8.90332 20.9734 9.06282C20.9339 9.22234 20.8515 9.36679 20.736 9.47934L16.8345 13.5155C16.7351 13.6126 16.6603 13.734 16.6172 13.8688C16.5741 14.0036 16.564 14.1475 16.5878 14.2874L17.5285 19.9638C17.5558 20.127 17.5385 20.2947 17.4788 20.4481C17.4191 20.6015 17.3194 20.7343 17.1907 20.8316C17.0623 20.9287 16.9101 20.9863 16.7517 20.9979C16.5933 21.0093 16.435 20.9742 16.2948 20.8964L11.4218 18.211C11.297 18.1471 11.1599 18.114 11.0209 18.114C10.8819 18.114 10.7447 18.1471 10.6199 18.211L5.74688 20.8964C5.60669 20.9742 5.4484 21.0093 5.29001 20.9979C5.13162 20.9863 4.97949 20.9287 4.85096 20.8316C4.72241 20.7343 4.6226 20.6015 4.56289 20.4481C4.5032 20.2947 4.48597 20.127 4.51321 19.9638L5.45388 14.2231C5.47773 14.0832 5.46764 13.9393 5.42455 13.8045C5.38147 13.6697 5.30672 13.5482 5.20715 13.4512L1.25938 9.47934C1.14259 9.36372 1.06045 9.21525 1.02292 9.05195C0.985396 8.88864 0.994088 8.71748 1.04794 8.55921C1.1018 8.40095 1.19851 8.26237 1.32636 8.16024C1.45421 8.05813 1.60771 7.99685 1.76827 7.98385L7.18103 7.14767C7.31766 7.13189 7.44794 7.07904 7.55888 6.99441C7.66982 6.90976 7.75753 6.79628 7.81329 6.66525L10.2652 1.50342C10.332 1.35308 10.4386 1.2258 10.5725 1.1366C10.7064 1.0474 10.862 1 11.0209 1C11.1797 1 11.3353 1.0474 11.4692 1.1366C11.6031 1.2258 11.7097 1.35308 11.7765 1.50342Z" stroke="#D8D8D8" stroke-width="1.5" stroke-linecap="round" stroke-linejoin="round"/>
</svg>
