<svg width="18" height="18" viewBox="0 0 18 18" fill="none" xmlns="http://www.w3.org/2000/svg">
<path fill-rule="evenodd" clip-rule="evenodd" d="M10.7864 11.5814C9.77535 12.3892 8.49338 12.7792 7.20376 12.6714C5.91414 12.5635 4.71476 11.966 3.85197 11.0014C2.98918 10.0369 2.52847 8.77857 2.56446 7.48494C2.60045 6.19132 3.13041 4.96058 4.04549 4.04549C4.96058 3.13041 6.19132 2.60045 7.48494 2.56446C8.77857 2.52847 10.0369 2.98918 11.0014 3.85197C11.966 4.71476 12.5635 5.91414 12.6714 7.20376C12.7792 8.49338 12.3892 9.77535 11.5814 10.7864L15.4484 14.6526C15.5036 14.7041 15.548 14.7662 15.5787 14.8352C15.6095 14.9042 15.626 14.9787 15.6273 15.0542C15.6287 15.1298 15.6148 15.2048 15.5865 15.2748C15.5582 15.3449 15.5161 15.4085 15.4627 15.4619C15.4092 15.5153 15.3456 15.5574 15.2756 15.5857C15.2055 15.614 15.1305 15.6279 15.055 15.6266C14.9795 15.6252 14.905 15.6087 14.836 15.578C14.767 15.5472 14.7049 15.5029 14.6534 15.4476L10.7864 11.5814ZM4.84263 10.4099C4.29216 9.85935 3.91724 9.158 3.76526 8.39445C3.61328 7.63091 3.69106 6.83945 3.98876 6.1201C4.28646 5.40075 4.79073 4.78579 5.43784 4.35295C6.08494 3.92011 6.84583 3.68881 7.62435 3.68829C8.40287 3.68776 9.16408 3.91804 9.81176 4.35001C10.4594 4.78198 10.9645 5.39625 11.2632 6.11521C11.5619 6.83416 11.6407 7.62551 11.4898 8.38926C11.3388 9.153 10.9649 9.85486 10.4151 10.4061L10.4114 10.4099L10.4076 10.4129C9.66895 11.1498 8.66795 11.5635 7.6245 11.5629C6.58106 11.5623 5.58051 11.1476 4.84263 10.4099Z" fill="black" fill-opacity="0.7"/>
</svg>
