<svg width="14" height="14" viewBox="0 0 14 14" fill="none" xmlns="http://www.w3.org/2000/svg">
<rect x="0.5" y="0.5" width="13" height="13" rx="1.5" stroke="#C92E2E"/>
<path d="M10.017 7.36364C10.017 8.13068 9.87855 8.79356 9.60156 9.35227C9.32457 9.91098 8.9446 10.3419 8.46165 10.6449C7.97869 10.9479 7.42708 11.0994 6.80682 11.0994C6.18655 11.0994 5.63494 10.9479 5.15199 10.6449C4.66903 10.3419 4.28906 9.91098 4.01207 9.35227C3.73509 8.79356 3.59659 8.13068 3.59659 7.36364C3.59659 6.59659 3.73509 5.93371 4.01207 5.375C4.28906 4.81629 4.66903 4.38542 5.15199 4.08239C5.63494 3.77936 6.18655 3.62784 6.80682 3.62784C7.42708 3.62784 7.97869 3.77936 8.46165 4.08239C8.9446 4.38542 9.32457 4.81629 9.60156 5.375C9.87855 5.93371 10.017 6.59659 10.017 7.36364ZM9.16477 7.36364C9.16477 6.7339 9.05942 6.20241 8.84872 5.76918C8.64039 5.33594 8.35748 5.00805 8 4.78551C7.64489 4.56297 7.24716 4.4517 6.80682 4.4517C6.36648 4.4517 5.96757 4.56297 5.61009 4.78551C5.25497 5.00805 4.97206 5.33594 4.76136 5.76918C4.55303 6.20241 4.44886 6.7339 4.44886 7.36364C4.44886 7.99337 4.55303 8.52486 4.76136 8.9581C4.97206 9.39134 5.25497 9.71922 5.61009 9.94176C5.96757 10.1643 6.36648 10.2756 6.80682 10.2756C7.24716 10.2756 7.64489 10.1643 8 9.94176C8.35748 9.71922 8.64039 9.39134 8.84872 8.9581C9.05942 8.52486 9.16477 7.99337 9.16477 7.36364Z" fill="#C92E2E"/>
</svg>
