<svg width="14" height="14" viewBox="0 0 14 14" fill="none" xmlns="http://www.w3.org/2000/svg">
<rect x="0.5" y="0.5" width="13" height="13" rx="1.5" stroke="#5C57EE"/>
<path d="M4.88068 11V3.72727H7.33807C7.90625 3.72727 8.37263 3.82434 8.73722 4.01847C9.1018 4.21023 9.37169 4.47419 9.54688 4.81037C9.72206 5.14654 9.80966 5.52888 9.80966 5.95739C9.80966 6.38589 9.72206 6.76586 9.54688 7.0973C9.37169 7.42874 9.10298 7.68916 8.74077 7.87855C8.37855 8.06558 7.91572 8.15909 7.35227 8.15909H5.36364V7.36364H7.32386C7.71212 7.36364 8.02462 7.30682 8.26136 7.19318C8.50047 7.07955 8.6733 6.91856 8.77983 6.71023C8.88873 6.49953 8.94318 6.24858 8.94318 5.95739C8.94318 5.66619 8.88873 5.41169 8.77983 5.19389C8.67093 4.97609 8.49692 4.808 8.25781 4.68963C8.0187 4.56889 7.70265 4.50852 7.30966 4.50852H5.76136V11H4.88068ZM8.30398 7.73295L10.0938 11H9.07102L7.30966 7.73295H8.30398Z" fill="#5C57EE"/>
</svg>
