<svg width="20" height="20" viewBox="0 0 20 20" fill="none" xmlns="http://www.w3.org/2000/svg">
<path d="M4.99967 16.6667C4.54134 16.6667 4.14912 16.5036 3.82301 16.1775C3.4969 15.8514 3.33356 15.4589 3.33301 15V13.3333C3.33301 13.0972 3.41301 12.8995 3.57301 12.74C3.73301 12.5806 3.93079 12.5006 4.16634 12.5C4.4019 12.4995 4.59995 12.5795 4.76051 12.74C4.92106 12.9006 5.00079 13.0983 4.99967 13.3333V15H14.9997V13.3333C14.9997 13.0972 15.0797 12.8995 15.2397 12.74C15.3997 12.5806 15.5975 12.5006 15.833 12.5C16.0686 12.4995 16.2666 12.5795 16.4272 12.74C16.5877 12.9006 16.6675 13.0983 16.6663 13.3333V15C16.6663 15.4583 16.5033 15.8508 16.1772 16.1775C15.8511 16.5042 15.4586 16.6672 14.9997 16.6667H4.99967ZM9.16634 6.54168L7.60384 8.10418C7.43717 8.27085 7.2394 8.35085 7.01051 8.34418C6.78162 8.33751 6.58356 8.25057 6.41634 8.08335C6.26356 7.91668 6.18356 7.72224 6.17634 7.50001C6.16912 7.27779 6.24912 7.08335 6.41634 6.91668L9.41634 3.91668C9.49967 3.83335 9.58995 3.77446 9.68717 3.74001C9.7844 3.70557 9.88856 3.68807 9.99967 3.68751C10.1108 3.68696 10.215 3.70446 10.3122 3.74001C10.4094 3.77557 10.4997 3.83446 10.583 3.91668L13.583 6.91668C13.7497 7.08335 13.8297 7.27779 13.823 7.50001C13.8163 7.72224 13.7363 7.91668 13.583 8.08335C13.4163 8.25001 13.2186 8.33696 12.9897 8.34418C12.7608 8.3514 12.5627 8.2714 12.3955 8.10418L10.833 6.54168V12.5C10.833 12.7361 10.753 12.9342 10.593 13.0942C10.433 13.2542 10.2352 13.3339 9.99967 13.3333C9.76412 13.3328 9.56634 13.2528 9.40634 13.0933C9.24634 12.9339 9.16634 12.7361 9.16634 12.5V6.54168Z" fill="black"/>
</svg>
