<svg width="18" height="20" viewBox="0 0 18 20" fill="none" xmlns="http://www.w3.org/2000/svg">
<path d="M15.5 9.25898V4.16732C15.5 3.72529 15.3244 3.30137 15.0119 2.98881C14.6993 2.67625 14.2754 2.50065 13.8333 2.50065H10.35C10 1.53398 9.08335 0.833984 8.00002 0.833984C6.91668 0.833984 6.00002 1.53398 5.65002 2.50065H2.16668C1.25002 2.50065 0.500015 3.25065 0.500015 4.16732V15.834C0.500015 16.276 0.67561 16.6999 0.988171 17.0125C1.30073 17.3251 1.72465 17.5007 2.16668 17.5007H7.25835C8.30835 18.534 9.74168 19.1673 11.3333 19.1673C14.5583 19.1673 17.1667 16.559 17.1667 13.334C17.1667 11.7423 16.5333 10.309 15.5 9.25898ZM8.00002 2.50065C8.45835 2.50065 8.83335 2.87565 8.83335 3.33398C8.83335 3.79232 8.45835 4.16732 8.00002 4.16732C7.54168 4.16732 7.16668 3.79232 7.16668 3.33398C7.16668 2.87565 7.54168 2.50065 8.00002 2.50065ZM2.16668 15.834V4.16732H3.83335V5.83398H12.1667V4.16732H13.8333V8.06732C13.075 7.70898 12.2333 7.50065 11.3333 7.50065H3.83335V9.16732H7.25002C6.75002 9.64232 6.36668 10.209 6.06668 10.834H3.83335V12.5007H5.56668C5.52501 12.7757 5.50002 13.0507 5.50002 13.334C5.50002 14.234 5.70835 15.0757 6.06668 15.834H2.16668ZM11.3333 17.5007C9.03335 17.5007 7.16668 15.634 7.16668 13.334C7.16668 11.034 9.03335 9.16732 11.3333 9.16732C13.6333 9.16732 15.5 11.034 15.5 13.334C15.5 15.634 13.6333 17.5007 11.3333 17.5007ZM11.75 13.5423L14.1333 14.9507L13.5083 15.9673L10.5 14.1673V10.0007H11.75V13.5423Z" fill="#C5CED5"/>
</svg>
