<svg width="16" height="16" viewBox="0 0 16 16" fill="none" xmlns="http://www.w3.org/2000/svg">
<path d="M6.66666 8.00008C6.66666 8.3537 6.80714 8.69284 7.05719 8.94289C7.30724 9.19294 7.64638 9.33341 8 9.33341C8.35362 9.33341 8.69276 9.19294 8.94281 8.94289C9.19285 8.69284 9.33333 8.3537 9.33333 8.00008C9.33333 7.64646 9.19285 7.30732 8.94281 7.05727C8.69276 6.80722 8.35362 6.66675 8 6.66675C7.64638 6.66675 7.30724 6.80722 7.05719 7.05727C6.80714 7.30732 6.66666 7.64646 6.66666 8.00008Z" stroke="#D8CFB1" stroke-linecap="round" stroke-linejoin="round"/>
<path d="M14 8C12.4 10.6667 10.4 12 8 12C5.6 12 3.6 10.6667 2 8C3.6 5.33333 5.6 4 8 4C10.4 4 12.4 5.33333 14 8Z" stroke="#D8CFB1" stroke-linecap="round" stroke-linejoin="round"/>
</svg>
