<svg width="18" height="14" viewBox="0 0 18 14" fill="none" xmlns="http://www.w3.org/2000/svg">
<path d="M14.8337 0.333008C15.4967 0.333008 16.1326 0.5964 16.6014 1.06524C17.0703 1.53408 17.3337 2.16997 17.3337 2.83301V11.1663C17.3337 11.8294 17.0703 12.4653 16.6014 12.9341C16.1326 13.4029 15.4967 13.6663 14.8337 13.6663H3.16699C2.50395 13.6663 1.86807 13.4029 1.39923 12.9341C0.930384 12.4653 0.666992 11.8294 0.666992 11.1663V2.83301C0.666992 2.16997 0.930384 1.53408 1.39923 1.06524C1.86807 0.5964 2.50395 0.333008 3.16699 0.333008H14.8337ZM15.667 5.33301H2.33366V11.1663C2.33369 11.3705 2.40862 11.5675 2.54425 11.72C2.67989 11.8725 2.86678 11.97 3.06949 11.9938L3.16699 11.9997H14.8337C15.0378 11.9996 15.2348 11.9247 15.3873 11.7891C15.5398 11.6534 15.6373 11.4666 15.6612 11.2638L15.667 11.1663V5.33301ZM13.167 7.83301C13.3794 7.83324 13.5837 7.91457 13.7381 8.06038C13.8926 8.20619 13.9855 8.40547 13.998 8.6175C14.0104 8.82954 13.9414 9.03832 13.8051 9.2012C13.6688 9.36408 13.4754 9.46875 13.2645 9.49384L13.167 9.49967H10.667C10.4546 9.49944 10.2503 9.41811 10.0959 9.2723C9.9414 9.12649 9.84846 8.92721 9.83601 8.71518C9.82357 8.50314 9.89255 8.29436 10.0289 8.13148C10.1652 7.9686 10.3586 7.86393 10.5695 7.83884L10.667 7.83301H13.167ZM14.8337 1.99967H3.16699C2.94598 1.99967 2.73402 2.08747 2.57774 2.24375C2.42146 2.40003 2.33366 2.61199 2.33366 2.83301V3.66634H15.667V2.83301C15.667 2.61199 15.5792 2.40003 15.4229 2.24375C15.2666 2.08747 15.0547 1.99967 14.8337 1.99967Z" fill="#C7AE51"/>
</svg>
